<svg width="207" height="43" viewBox="0 0 207 43" fill="none" xmlns="http://www.w3.org/2000/svg">
<path d="M1.656 29.66C1.656 31.244 2.952 32.216 4.176 32.216C5.4 32.216 6.12 31.676 6.876 30.704L12.708 23.108L18.612 30.848C19.296 31.748 19.98 32.216 21.168 32.216C22.752 32.216 23.904 31.028 23.904 29.48C23.904 28.688 23.508 27.968 23.076 27.428L16.308 19.112L22.716 11.264C23.256 10.58 23.544 9.932 23.544 9.14C23.544 7.556 22.248 6.584 21.024 6.584C19.8 6.584 19.08 7.124 18.324 8.096L12.852 15.296L7.344 7.952C6.66 7.052 5.976 6.584 4.788 6.584C3.204 6.584 2.052 7.772 2.052 9.32C2.052 10.112 2.448 10.832 2.88 11.372L9.288 19.184L2.484 27.536C1.944 28.22 1.656 28.868 1.656 29.66ZM38.6626 32.432C45.3946 32.432 49.8946 26.708 49.8946 19.4V19.328C49.8946 12.02 45.3946 6.368 38.7346 6.368C32.0386 6.368 27.5026 12.092 27.5026 19.4V19.472C27.5026 26.78 31.9306 32.432 38.6626 32.432ZM38.7346 27.428C35.3866 27.428 33.1906 24.008 33.1906 19.4V19.328C33.1906 14.72 35.3506 11.372 38.6626 11.372C41.9746 11.372 44.2066 14.828 44.2066 19.4V19.472C44.2066 24.044 42.0826 27.428 38.7346 27.428ZM54.8795 29.444C54.8795 30.992 56.1035 32.216 57.6515 32.216C59.1995 32.216 60.4235 30.992 60.4235 29.444V24.44H64.6355C70.2875 24.44 74.8235 21.416 74.8235 15.584V15.512C74.8235 10.364 71.1875 6.8 65.1755 6.8H57.6515C56.1035 6.8 54.8795 8.024 54.8795 9.572V29.444ZM60.4235 19.508V11.804H64.7075C67.4795 11.804 69.2075 13.136 69.2075 15.62V15.692C69.2075 17.852 67.5875 19.508 64.8155 19.508H60.4235ZM75.4054 29.624C75.4054 31.064 76.5214 32.216 77.9614 32.216C79.1134 32.216 80.0494 31.568 80.5174 30.488L82.2814 26.348H93.3694L95.0614 30.308C95.5654 31.46 96.4294 32.216 97.7254 32.216C99.2014 32.216 100.353 31.028 100.353 29.552C100.353 29.192 100.245 28.832 100.065 28.436L91.2814 8.6C90.6694 7.232 89.5894 6.404 88.0774 6.404H87.7534C86.2414 6.404 85.1254 7.232 84.5134 8.6L75.7294 28.436C75.5494 28.832 75.4054 29.228 75.4054 29.624ZM84.3334 21.452L87.8254 13.136L91.3174 21.452H84.3334ZM124.453 32.36C129.889 32.36 133.705 29.552 133.705 24.548V24.476C133.705 20.084 130.825 18.248 125.713 16.916C121.357 15.8 120.277 15.26 120.277 13.604V13.532C120.277 12.308 121.393 11.336 123.517 11.336C125.245 11.336 126.973 11.948 128.809 13.028C129.241 13.28 129.673 13.424 130.213 13.424C131.653 13.424 132.805 12.308 132.805 10.868C132.805 9.788 132.193 9.032 131.581 8.672C129.313 7.232 126.649 6.44 123.589 6.44C118.441 6.44 114.769 9.464 114.769 14.036V14.108C114.769 19.112 118.045 20.516 123.121 21.812C127.333 22.892 128.197 23.612 128.197 25.016V25.088C128.197 26.564 126.829 27.464 124.561 27.464C122.113 27.464 120.025 26.6 118.117 25.196C117.757 24.944 117.253 24.692 116.533 24.692C115.093 24.692 113.941 25.808 113.941 27.248C113.941 28.112 114.373 28.904 114.985 29.336C117.793 31.352 121.141 32.36 124.453 32.36ZM137.94 29.48C137.94 30.992 139.164 32.216 140.676 32.216C142.188 32.216 143.412 30.992 143.412 29.48V21.236C143.412 18.644 144.744 17.312 146.832 17.312C148.92 17.312 150.144 18.644 150.144 21.236V29.48C150.144 30.992 151.368 32.216 152.88 32.216C154.392 32.216 155.616 30.992 155.616 29.48V19.508C155.616 15.08 153.204 12.344 149.064 12.344C146.292 12.344 144.672 13.82 143.412 15.44V8.24C143.412 6.728 142.188 5.504 140.676 5.504C139.164 5.504 137.94 6.728 137.94 8.24V29.48ZM169.838 32.432C175.85 32.432 180.314 27.932 180.314 22.388V22.316C180.314 16.772 175.886 12.344 169.91 12.344C163.898 12.344 159.434 16.844 159.434 22.388V22.46C159.434 28.004 163.862 32.432 169.838 32.432ZM169.91 27.716C166.886 27.716 164.834 25.232 164.834 22.388V22.316C164.834 19.472 166.706 17.06 169.838 17.06C172.862 17.06 174.914 19.544 174.914 22.388V22.46C174.914 25.304 173.042 27.716 169.91 27.716ZM184.276 35.24C184.276 36.752 185.5 37.976 187.012 37.976C188.524 37.976 189.748 36.752 189.748 35.24V29.48C191.044 31.028 192.844 32.36 195.76 32.36C200.332 32.36 204.544 28.832 204.544 22.388V22.316C204.544 15.872 200.26 12.344 195.76 12.344C192.916 12.344 191.08 13.676 189.748 15.476V15.224C189.748 13.712 188.524 12.488 187.012 12.488C185.5 12.488 184.276 13.712 184.276 15.224V35.24ZM194.356 27.716C191.8 27.716 189.676 25.592 189.676 22.388V22.316C189.676 19.112 191.8 16.988 194.356 16.988C196.912 16.988 199.072 19.112 199.072 22.316V22.388C199.072 25.628 196.912 27.716 194.356 27.716Z" fill="#D4A244"/>
</svg>
